<svg xmlns="http://www.w3.org/2000/svg" viewBox="0 0 1521.84 1536.64"><defs><style>.cls-1{fill:#f3641e;}.cls-2{fill:#002fa7;}.cls-3{font-size:232.17px;font-family:MiSans-Heavy, MiSans;font-weight:800;}.cls-3,.cls-7{fill:#fff;}.cls-4{letter-spacing:-0.05em;}.cls-5{letter-spacing:0em;}.cls-6{letter-spacing:-0.01em;}</style></defs><g id="图层_2" data-name="图层 2"><g id="图层_1-2" data-name="图层 1"><path class="cls-1" d="M0,985.74H1521.84a0,0,0,0,1,0,0V1295.6a241,241,0,0,1-241,241H241a241,241,0,0,1-241-241V985.74A0,0,0,0,1,0,985.74Z"/><path class="cls-2" d="M214.41,0h1093a214.41,214.41,0,0,1,214.41,214.41V985.74a0,0,0,0,1,0,0H0a0,0,0,0,1,0,0V214.41A214.41,214.41,0,0,1,214.41,0Z"/><text class="cls-3" transform="translate(101.28 1306.58) scale(0.99 1)">Mar<tspan class="cls-4" x="480.36" y="0">k</tspan><tspan class="cls-5" x="623.15" y="0">d</tspan><tspan class="cls-6" x="778.24" y="0">o</tspan><tspan x="926.6" y="0">wn</tspan></text><g id="图层_2-2" data-name="图层 2"><g id="图层_1-2-2" data-name="图层 1-2"><path class="cls-7" d="M394.21,679.34V895.9H269.14V681L92.75,360h138.3l98.62,202.39h3.61L431.9,360H569.8ZM625.12,895.9V483H745.39V895.9Zm542.4,0H817.14V805.23L1030,576.53H873.27l288.63-12.95v12.95L949.44,804.42h218.08Zm66.54,0V483h120.27V895.9Z"/><path class="cls-7" d="M625.12,369.69V248.25H745.39V369.69Zm609.34,0V248.25h120.27V369.69Z"/><path class="cls-7" d="M1112.59,450.64c-7.31,59-59.19,101.72-117.85,97.15-58.52,4.34-110.15-38.36-117.46-97.15H777.46c6.47,115,103.37,203.23,217.28,197.94,114.06,5.52,211.2-82.82,217.67-197.94Z"/></g></g></g></g></svg>